<svg width="997.7450439453124px" height="120.8px" xmlns="http://www.w3.org/2000/svg" viewBox="-248.87252197265622 14.600000000000001 997.7450439453124 120.8" style="background: rgba(0, 0, 0, 0);" preserveAspectRatio="xMidYMid"><defs>
  <filter id="editing-scratch" x="-100%" y="-100%" width="300%" height="300%">
    <!-- COLOR -->
    <feFlood flood-color="#ddd" flood-opacity="0.75" result="COLOR-blu"></feFlood>
    <feFlood flood-color="#666" flood-opacity="0.4" result="COLOR-red"></feFlood>
    <!-- COLOR END -->

    <!-- Texture -->
    <feTurbulence baseFrequency=".05" type="fractalNoise" numOctaves="3" seed="0" result="Texture_10"></feTurbulence>
    <feColorMatrix type="matrix" values="0 0 0 0 0,
    0 0 0 0 0,
    0 0 0 0 0,
    0 0 0 -2.1 1.1" in="Texture_10" result="Texture_20"></feColorMatrix>

    <feColorMatrix result="Texture_30" type="matrix" values="0 0 0 0 0,
    0 0 0 0 0,
    0 0 0 0 0,
    0 0 0 -1.7 1.8" in="Texture_10"></feColorMatrix>
    <!-- Texture -->

    <!-- FILL -->
    <feOffset dx="-3" dy="4" in="SourceAlpha" result="FILL_10"></feOffset>
    <feDisplacementMap scale="17" in="FILL_10" in2="Texture_10" result="FILL_20"></feDisplacementMap>
    <feComposite operator="in" in="Texture_30" in2="FILL_20" result="FILL_40"></feComposite>
    <feComposite operator="in" in="COLOR-blu" in2="FILL_40" result="FILL_50"></feComposite>
    <!-- FILL END-->

    <!-- OUTLINE -->
    <feMorphology operator="dilate" radius="3" in="SourceGraphic" result="OUTLINE_10"></feMorphology>
    <feComposite operator="out" in="OUTLINE_10" in2="SourceGraphic" result="OUTLINE_20"></feComposite>
    <feDisplacementMap scale="7" in="OUTLINE_20" in2="Texture_10" result="OUTLINE_30"></feDisplacementMap>
    <feComposite operator="arithmetic" k2="-1" k3="1" in="Texture_20" in2="OUTLINE_30" result="OUTLINE_40"></feComposite>
    <!-- OUTLINE END-->

    <!-- BEVEL OUTLINE -->
    <feConvolveMatrix order="8,8" divisor="1" kernelMatrix="1 0 0 0 0 0 0 0 0 1 0 0 0 0 0 0 0 0 1 0 0 0 0 0 0 0 0 1 0 0 0 0 0 0 0 0 1 0 0 0 0 0 0 0 0 1 0 0 0 0 0 0 0 0 1 0 0 0 0 0 0 0 0 1 " in="SourceGraphic" result="BEVEL_10"></feConvolveMatrix>
    <feMorphology operator="dilate" radius="2" in="BEVEL_10" result="BEVEL_20"></feMorphology>
    <feComposite operator="out" in="BEVEL_20" in2="BEVEL_10" result="BEVEL_30"></feComposite>
    <feDisplacementMap scale="7" in="BEVEL_30" in2="Texture_10" result="BEVEL_40"></feDisplacementMap>
    <feComposite operator="arithmetic" k2="-1" k3="1" in="Texture_20" in2="BEVEL_40" result="BEVEL_50"></feComposite>
    <feOffset dx="-7" dy="-7" in="BEVEL_50" result="BEVEL_60"></feOffset>
    <feComposite operator="out" in="BEVEL_60" in2="OUTLINE_10" result="BEVEL_70"></feComposite>
    <!-- BEVEL OUTLINE END -->

    <!-- BEVEL FILL -->
    <feOffset dx="-9" dy="-9" in="BEVEL_10" result="BEVEL-FILL_10"></feOffset>
    <feComposite operator="out" in="BEVEL-FILL_10" in2="OUTLINE_10" result="BEVEL-FILL_20"></feComposite>
    <feDisplacementMap scale="17" in="BEVEL-FILL_20" in2="Texture_10" result="BEVEL-FILL_30"></feDisplacementMap>
    <feComposite operator="in" in="COLOR-red" in2="BEVEL-FILL_30" result="BEVEL-FILL_50"></feComposite> <!-- -->
    <!-- BEVEL FILL END-->

    <feMerge result="merge2">
     <feMergeNode in="BEVEL-FILL_50"></feMergeNode>
     <feMergeNode in="BEVEL_70"></feMergeNode>
     <feMergeNode in="FILL_50"></feMergeNode>
      <feMergeNode in="OUTLINE_40"></feMergeNode>
    </feMerge>
  </filter>
</defs>
<g filter="url(#editing-scratch)"><g transform="translate(-110.959969997406, 104.76000022888184)"><path d="M6.21-31.17L6.21-31.17L6.21-31.17Q4.03-32.83 4.03-36.38L4.03-36.38L4.03-36.38Q4.03-39.94 6.37-41.79L6.37-41.79L6.37-41.79Q8.70-43.65 12.74-43.65L12.74-43.65L12.74-43.65Q15.30-43.65 21.38-42.75L21.38-42.75L25.73-42.11L25.73-42.11Q27.90-41.86 30.18-41.86L30.18-41.86L30.18-41.86Q32.45-41.86 33.98-42.82L33.98-42.82L33.98-42.82Q36.29-40.77 36.29-37.82L36.29-37.82L36.29-37.82Q36.29-34.88 33.66-32.77L33.66-32.77L33.66-32.77Q30.98-30.53 27.52-30.53L27.52-30.53L27.52-30.53Q25.86-30.53 23.17-30.98L23.17-30.98L23.17-30.98Q20.03-21.12 20.03-14.27L20.03-14.27L20.03-14.27Q20.03-7.42 23.49-3.84L23.49-3.84L23.49-3.84Q21.89-0.96 19.52 0.16L19.52 0.16L19.52 0.16Q17.15 1.28 13.60 1.28L13.60 1.28L13.60 1.28Q10.05 1.28 7.84-0.67L7.84-0.67L7.84-0.67Q5.63-2.62 5.63-6.66L5.63-6.66L5.63-6.66Q5.63-11.33 8.19-19.01L8.19-19.01L8.19-19.01Q10.75-26.62 14.59-32.45L14.59-32.45L14.59-32.45Q12.74-32.64 10.82-32.64L10.82-32.64L10.82-32.64Q6.85-32.64 6.21-31.17ZM66.43-7.10L66.43-7.10L66.43-7.10Q66.43-4.29 69.31-3.46L69.31-3.46L69.31-3.46Q68.61-1.09 65.86 0.19L65.86 0.19L65.86 0.19Q63.55 1.28 61.02 1.28L61.02 1.28L61.02 1.28Q58.50 1.28 57.18 0.61L57.18 0.61L57.18 0.61Q55.87-0.06 55.17-1.15L55.17-1.15L55.17-1.15Q54.02-2.82 54.02-5.95L54.02-5.95L54.02-5.95Q54.02-7.81 55.04-12.93L55.04-12.93L55.94-17.79L55.94-17.79Q57.02-23.36 57.02-25.41L57.02-25.41L57.02-25.41Q57.02-28.99 55.04-28.99L55.04-28.99L55.04-28.99Q52.54-28.99 50.94-25.34L50.94-25.34L50.94-25.34Q50.30-23.94 49.86-21.82L49.86-21.82L45.50 0L32.64 1.28L41.66-44.80L54.53-46.08L54.02-43.52L54.02-43.52Q52.22-33.66 50.69-30.34L50.69-30.34L50.69-30.34Q54.27-33.92 60.86-33.92L60.86-33.92L60.86-33.92Q67.84-33.92 69.12-29.31L69.12-29.31L69.12-29.31Q69.57-27.84 69.57-26.56L69.57-26.56L69.57-26.56Q69.57-25.28 69.47-24.29L69.47-24.29L69.47-24.29Q69.38-23.30 69.06-21.50L69.06-21.50L68.22-16.90L66.75-9.66L66.75-9.66Q66.43-8.19 66.43-7.10ZM100.42-10.82L100.42-10.82L100.42-10.82Q102.02-9.73 102.02-7.33L102.02-7.33L102.02-7.33Q102.02-4.93 100.80-3.39L100.80-3.39L100.80-3.39Q99.58-1.86 97.60-0.83L97.60-0.83L97.60-0.83Q93.50 1.28 89.09 1.28L89.09 1.28L89.09 1.28Q84.67 1.28 82.08 0.32L82.08 0.32L82.08 0.32Q79.49-0.64 77.76-2.43L77.76-2.43L77.76-2.43Q74.37-5.82 74.37-12.03L74.37-12.03L74.37-12.03Q74.37-21.70 79.62-27.58L79.62-27.58L79.62-27.58Q85.25-33.92 95.04-33.92L95.04-33.92L95.04-33.92Q101.12-33.92 104.13-31.36L104.13-31.36L104.13-31.36Q106.37-29.44 106.37-26.30L106.37-26.30L106.37-26.30Q106.37-15.04 86.91-15.04L86.91-15.04L86.91-15.04Q86.66-13.38 86.66-11.97L86.66-11.97L86.66-11.97Q86.66-9.02 87.97-7.90L87.97-7.90L87.97-7.90Q89.28-6.78 91.71-6.78L91.71-6.78L91.71-6.78Q94.14-6.78 96.74-7.90L96.74-7.90L96.74-7.90Q99.33-9.02 100.42-10.82ZM87.36-17.79L87.36-17.79L87.36-17.79Q91.90-17.79 94.53-20.61L94.53-20.61L94.53-20.61Q97.15-23.30 97.15-27.58L97.15-27.58L97.15-27.58Q97.15-29.06 96.61-29.86L96.61-29.86L96.61-29.86Q96.06-30.66 94.98-30.66L94.98-30.66L94.98-30.66Q93.89-30.66 92.96-30.24L92.96-30.24L92.96-30.24Q92.03-29.82 91.07-28.42L91.07-28.42L91.07-28.42Q88.70-25.22 87.36-17.79ZM154.62 1.28L154.62 1.28L154.62 1.28Q146.88 1.28 146.88-4.74L146.88-4.74L146.88-4.74Q146.88-7.36 148-12.45L148-12.45L148-12.45Q149.12-17.54 149.50-19.58L149.50-19.58L149.50-19.58Q150.40-24.26 150.40-25.73L150.40-25.73L150.40-25.73Q150.40-28.99 147.97-28.99L147.97-28.99L147.97-28.99Q146.37-28.99 144.83-26.78L144.83-26.78L144.83-26.78Q143.30-24.58 142.59-20.16L142.59-20.16L138.62 0L126.14 1.28L129.60-16.13L129.60-16.13Q130.18-19.01 130.69-22.27L130.69-22.27L130.69-22.27Q131.20-25.54 131.20-26.05L131.20-26.05L131.20-26.05Q131.20-28.99 129.02-28.99L129.02-28.99L129.02-28.99Q127.55-28.99 125.95-26.82L125.95-26.82L125.95-26.82Q124.35-24.64 123.46-20.16L123.46-20.16L119.55 0L106.94 1.28L113.66-32.64L124.10-33.92L123.01-27.46L123.01-27.46Q124.67-30.91 127.74-32.42L127.74-32.42L127.74-32.42Q130.82-33.92 135.62-33.92L135.62-33.92L135.62-33.92Q138.37-33.92 140.16-32.58L140.16-32.58L140.16-32.58Q141.95-31.23 142.53-29.06L142.53-29.06L142.53-29.06Q143.62-31.30 146.40-32.61L146.40-32.61L146.40-32.61Q149.18-33.92 152.61-33.92L152.61-33.92L152.61-33.92Q156.03-33.92 157.73-33.18L157.73-33.18L157.73-33.18Q159.42-32.45 160.45-31.23L160.45-31.23L160.45-31.23Q162.18-28.99 162.18-24.90L162.18-24.90L162.18-24.90Q162.18-20.86 160.45-12.48L160.45-12.48L160.45-12.48Q159.55-8.38 159.55-6.88L159.55-6.88L159.55-6.88Q159.55-5.38 160.42-4.48L160.42-4.48L160.42-4.48Q161.28-3.58 162.56-3.46L162.56-3.46L162.56-3.46Q161.92-1.28 159.71 0L159.71 0L159.71 0Q157.50 1.28 154.62 1.28ZM193.41-10.82L193.41-10.82L193.41-10.82Q195.01-9.73 195.01-7.33L195.01-7.33L195.01-7.33Q195.01-4.93 193.79-3.39L193.79-3.39L193.79-3.39Q192.58-1.86 190.59-0.83L190.59-0.83L190.59-0.83Q186.50 1.28 182.08 1.28L182.08 1.28L182.08 1.28Q177.66 1.28 175.07 0.32L175.07 0.32L175.07 0.32Q172.48-0.64 170.75-2.43L170.75-2.43L170.75-2.43Q167.36-5.82 167.36-12.03L167.36-12.03L167.36-12.03Q167.36-21.70 172.61-27.58L172.61-27.58L172.61-27.58Q178.24-33.92 188.03-33.92L188.03-33.92L188.03-33.92Q194.11-33.92 197.12-31.36L197.12-31.36L197.12-31.36Q199.36-29.44 199.36-26.30L199.36-26.30L199.36-26.30Q199.36-15.04 179.90-15.04L179.90-15.04L179.90-15.04Q179.65-13.38 179.65-11.97L179.65-11.97L179.65-11.97Q179.65-9.02 180.96-7.90L180.96-7.90L180.96-7.90Q182.27-6.78 184.70-6.78L184.70-6.78L184.70-6.78Q187.14-6.78 189.73-7.90L189.73-7.90L189.73-7.90Q192.32-9.02 193.41-10.82ZM180.35-17.79L180.35-17.79L180.35-17.79Q184.90-17.79 187.52-20.61L187.52-20.61L187.52-20.61Q190.14-23.30 190.14-27.58L190.14-27.58L190.14-27.58Q190.14-29.06 189.60-29.86L189.60-29.86L189.60-29.86Q189.06-30.66 187.97-30.66L187.97-30.66L187.97-30.66Q186.88-30.66 185.95-30.24L185.95-30.24L185.95-30.24Q185.02-29.82 184.06-28.42L184.06-28.42L184.06-28.42Q181.70-25.22 180.35-17.79ZM244.54-4.38L244.54-4.38L244.54-4.38Q241.86-1.66 238.18-0.19L238.18-0.19L238.18-0.19Q234.50 1.28 230.85 1.28L230.85 1.28L230.85 1.28Q227.20 1.28 225.92 0.64L225.92 0.64L223.94 11.52L210.94 12.80L219.78-32.64L230.21-33.73L229.38-29.31L229.38-29.31Q232.06-33.86 237.63-33.86L237.63-33.86L237.63-33.86Q243.90-33.86 247.23-29.82L247.23-29.82L247.23-29.82Q250.18-26.18 250.18-20.61L250.18-20.61L250.18-20.61Q250.18-15.04 248.70-11.07L248.70-11.07L248.70-11.07Q247.23-7.10 244.54-4.38ZM230.08-22.34L226.69-3.58L226.69-3.58Q228.03-2.43 229.70-2.43L229.70-2.43L229.70-2.43Q231.36-2.43 232.32-3.07L232.32-3.07L232.32-3.07Q233.28-3.71 233.98-4.99L233.98-4.99L233.98-4.99Q235.90-8.45 237.44-18.94L237.44-18.94L237.44-18.94Q237.89-22.02 237.89-25.02L237.89-25.02L237.89-25.02Q237.89-28.03 237.22-28.99L237.22-28.99L237.22-28.99Q236.54-29.95 235.26-29.95L235.26-29.95L235.26-29.95Q231.36-29.95 230.08-22.34L230.08-22.34ZM256.80-1.92L256.80-1.92L256.80-1.92Q255.30-3.58 254.62-6.21L254.62-6.21L254.62-6.21Q253.95-8.83 253.95-13.12L253.95-13.12L253.95-13.12Q253.95-17.41 255.42-21.31L255.42-21.31L255.42-21.31Q256.90-25.22 259.58-28.03L259.58-28.03L259.58-28.03Q265.09-33.92 274.18-33.92L274.18-33.92L274.18-33.92Q277.44-33.92 279.81-32.83L279.81-32.83L290.75-33.92L286.02-8.96L286.02-8.96Q285.82-8.19 285.82-6.78L285.82-6.78L285.82-6.78Q285.82-5.38 286.69-4.48L286.69-4.48L286.69-4.48Q287.55-3.58 288.83-3.46L288.83-3.46L288.83-3.46Q288.19-1.28 285.86 0L285.86 0L285.86 0Q283.52 1.28 280.90 1.28L280.90 1.28L280.90 1.28Q278.27 1.28 276.51 0.29L276.51 0.29L276.51 0.29Q274.75-0.70 274.24-2.37L274.24-2.37L274.24-2.37Q273.22-0.77 271.04 0.26L271.04 0.26L271.04 0.26Q268.86 1.28 265.95 1.28L265.95 1.28L265.95 1.28Q263.04 1.28 260.67 0.51L260.67 0.51L260.67 0.51Q258.30-0.26 256.80-1.92ZM270.30-27.90L270.30-27.90L270.30-27.90Q269.57-26.75 268.93-24.80L268.93-24.80L268.93-24.80Q268.29-22.85 267.23-17.63L267.23-17.63L267.23-17.63Q266.18-12.42 266.18-8.70L266.18-8.70L266.18-8.70Q266.18-4.99 266.75-3.90L266.75-3.90L266.75-3.90Q267.33-2.82 268.35-2.82L268.35-2.82L268.35-2.82Q270.40-2.82 271.90-4.77L271.90-4.77L271.90-4.77Q273.41-6.72 273.98-10.18L273.98-10.18L277.38-28.93L277.38-28.93Q276.03-30.08 274.46-30.08L274.46-30.08L274.46-30.08Q272.90-30.08 271.97-29.57L271.97-29.57L271.97-29.57Q271.04-29.06 270.30-27.90ZM314.24-17.98L314.24-17.98L314.24-17.98Q316.54-22.08 316.54-26.24L316.54-26.24L316.54-26.24Q316.54-28.99 314.56-28.99L314.56-28.99L314.56-28.99Q313.02-28.99 311.42-26.37L311.42-26.37L311.42-26.37Q309.76-23.74 309.25-20.35L309.25-20.35L305.92 0L292.67 1.28L299.20-32.64L309.76-33.92L308.61-27.46L308.61-27.46Q311.74-33.92 318.78-33.92L318.78-33.92L318.78-33.92Q322.50-33.92 324.51-32L324.51-32L324.51-32Q326.53-30.08 326.53-26.14L326.53-26.14L326.53-26.14Q326.53-22.21 323.94-19.71L323.94-19.71L323.94-19.71Q321.34-17.22 316.93-17.22L316.93-17.22L316.93-17.22Q315.01-17.22 314.24-17.98ZM344.06-30.34L344.06-30.34L344.06-30.34Q347.52-33.92 354.82-33.92L354.82-33.92L354.82-33.92Q358.85-33.92 361.06-31.78L361.06-31.78L361.06-31.78Q363.26-29.63 363.26-25.70L363.26-25.70L363.26-25.70Q363.26-21.76 361.06-18.98L361.06-18.98L361.06-18.98Q358.85-16.19 354.75-15.04L354.75-15.04L354.75-15.04Q355.07-13.76 355.52-12.42L355.52-12.42L356.42-9.86L356.42-9.86Q357.63-6.59 358.59-5.44L358.59-5.44L358.59-5.44Q359.55-4.29 360.83-3.90L360.83-3.90L360.83-3.90Q360.13-1.28 357.57 0.13L357.57 0.13L357.57 0.13Q355.52 1.28 352.70 1.28L352.70 1.28L352.70 1.28Q344.45 1.28 343.36-11.46L343.36-11.46L343.36-11.46Q343.17-13.25 343.17-15.04L343.17-15.04L343.17-15.04Q346.37-15.94 348.61-18.94L348.61-18.94L348.61-18.94Q350.85-21.95 350.85-25.47L350.85-25.47L350.85-25.47Q350.85-28.99 348.35-28.99L348.35-28.99L348.35-28.99Q346.56-28.99 345.15-27.01L345.15-27.01L345.15-27.01Q343.74-25.02 343.10-21.63L343.10-21.63L338.88 0L325.95 1.28L334.91-44.80L347.78-46.08L346.30-38.46L346.30-38.46Q345.34-33.09 344.06-30.34ZM427.14-10.69L427.14-10.69Q422.91-4.86 418.85-1.79L418.85-1.79L418.85-1.79Q414.78 1.28 410.59 1.28L410.59 1.28L410.59 1.28Q406.40 1.28 404.93 0.45L404.93 0.45L404.93-13.63L404.93-13.63Q401.28-3.90 394.75-0.13L394.75-0.13L394.75-0.13Q392.38 1.28 390.14 1.28L390.14 1.28L390.14 1.28Q385.86 1.28 384.00 0.45L384.00 0.45L384.00 0.45Q383.55-14.21 383.17-18.27L383.17-18.27L383.17-18.27Q382.78-22.34 382.46-24.83L382.46-24.83L382.46-24.83Q381.82-29.82 379.65-31.87L379.65-31.87L379.65-31.87Q382.40-33.92 386.24-33.92L386.24-33.92L386.24-33.92Q393.66-33.92 394.69-24.70L394.69-24.70L394.69-24.70Q394.94-22.53 394.94-20.22L394.94-20.22L394.94-20.22Q394.94-16.77 394.18-4.74L394.18-4.74L394.18-4.74Q395.71-5.44 397.34-7.97L397.34-7.97L397.34-7.97Q398.98-10.50 400.32-13.95L400.32-13.95L400.32-13.95Q403.33-21.95 403.33-28.86L403.33-28.86L403.33-28.86Q403.33-29.95 403.04-31.10L403.04-31.10L403.04-31.10Q402.75-32.26 402.43-32.58L402.43-32.58L402.43-32.58Q404.67-33.92 408.10-33.92L408.10-33.92L408.10-33.92Q411.52-33.92 413.15-31.58L413.15-31.58L413.15-31.58Q414.78-29.25 415.23-24.96L415.23-24.96L415.23-24.96Q415.74-19.52 415.74-16.26L415.74-16.26L415.74-16.26Q415.74-11.71 415.30-4.99L415.30-4.99L415.30-4.99Q418.50-7.30 421.12-14.85L421.12-14.85L421.12-14.85Q423.74-22.40 423.74-27.78L423.74-27.78L423.74-27.78Q423.74-30.14 423.36-31.55L423.36-31.55L423.36-31.55Q425.47-33.92 429.12-33.92L429.12-33.92L429.12-33.92Q431.36-33.92 432.99-32.70L432.99-32.70L432.99-32.70Q434.62-31.49 434.62-29.22L434.62-29.22L434.62-29.22Q434.62-26.94 433.95-24.51L433.95-24.51L433.95-24.51Q433.28-22.08 432.19-19.58L432.19-19.58L432.19-19.58Q430.08-14.59 427.14-10.69L427.14-10.69ZM450.30 1.28L450.30 1.28L450.30 1.28Q436.22 1.28 436.22-11.97L436.22-11.97L436.22-11.97Q436.22-21.38 441.41-27.46L441.41-27.46L441.41-27.46Q446.91-33.92 456.45-33.92L456.45-33.92L456.45-33.92Q463.36-33.92 466.88-30.72L466.88-30.72L466.88-30.72Q470.40-27.52 470.40-20.80L470.40-20.80L470.40-20.80Q470.40-10.56 464.90-4.61L464.90-4.61L464.90-4.61Q459.52 1.28 450.30 1.28ZM451.97-26.56L451.97-26.56L451.97-26.56Q451.20-24.83 450.59-22.24L450.59-22.24L450.59-22.24Q449.98-19.65 449.22-15.55L449.22-15.55L449.22-15.55Q448.45-11.46 448.45-6.40L448.45-6.40L448.45-6.40Q448.45-4.74 448.99-3.65L448.99-3.65L448.99-3.65Q449.54-2.56 451.01-2.56L451.01-2.56L451.01-2.56Q452.48-2.56 453.41-3.26L453.41-3.26L453.41-3.26Q454.34-3.97 455.04-5.63L455.04-5.63L455.04-5.63Q456.32-8.58 457.34-14.05L457.34-14.05L457.34-14.05Q458.37-19.52 458.46-21.89L458.46-21.89L458.46-21.89Q458.56-24.26 458.56-26.02L458.56-26.02L458.56-26.02Q458.56-27.78 458.05-28.93L458.05-28.93L458.05-28.93Q457.54-30.08 456.10-30.08L456.10-30.08L456.10-30.08Q454.66-30.08 453.70-29.18L453.70-29.18L453.70-29.18Q452.74-28.29 451.97-26.56ZM494.21-17.98L494.21-17.98L494.21-17.98Q496.51-22.08 496.51-26.24L496.51-26.24L496.51-26.24Q496.51-28.99 494.53-28.99L494.53-28.99L494.53-28.99Q492.99-28.99 491.39-26.37L491.39-26.37L491.39-26.37Q489.73-23.74 489.22-20.35L489.22-20.35L485.89 0L472.64 1.28L479.17-32.64L489.73-33.92L488.58-27.46L488.58-27.46Q491.71-33.92 498.75-33.92L498.75-33.92L498.75-33.92Q502.46-33.92 504.48-32L504.48-32L504.48-32Q506.50-30.08 506.50-26.14L506.50-26.14L506.50-26.14Q506.50-22.21 503.90-19.71L503.90-19.71L503.90-19.71Q501.31-17.22 496.90-17.22L496.90-17.22L496.90-17.22Q494.98-17.22 494.21-17.98ZM522.82-3.52L522.82-3.52L522.82-3.52Q520.83 1.28 514.50 1.28L514.50 1.28L514.50 1.28Q511.30 1.28 509.25-0.96L509.25-0.96L509.25-0.96Q507.58-2.82 507.58-4.93L507.58-4.93L507.58-4.93Q507.58-9.73 509.82-20.22L509.82-20.22L514.50-44.80L527.49-46.08L521.28-13.70L521.28-13.70Q520.19-8.96 520.19-7.30L520.19-7.30L520.19-7.30Q520.19-3.65 522.82-3.52ZM548.42-33.92L548.42-33.92L548.42-33.92Q550.72-33.92 552.51-33.41L552.51-33.41L552.51-33.41Q552.58-33.66 552.70-34.37L552.70-34.37L553.02-36.35L553.02-36.35Q553.28-37.63 553.66-39.74L553.66-39.74L554.69-44.80L567.42-46.08L560.32-8.96L560.32-8.96Q560.26-8.58 560.26-7.94L560.26-7.94L560.26-6.91L560.26-6.91Q560.26-5.50 560.96-4.45L560.96-4.45L560.96-4.45Q561.66-3.39 562.82-3.39L562.82-3.39L562.82-3.39Q561.54-0.38 557.63 0.90L557.63 0.90L557.63 0.90Q556.29 1.28 554.40 1.28L554.40 1.28L554.40 1.28Q552.51 1.28 550.78 0.29L550.78 0.29L550.78 0.29Q549.06-0.70 548.54-2.37L548.54-2.37L548.54-2.37Q547.52-0.70 545.47 0.29L545.47 0.29L545.47 0.29Q543.42 1.28 540.45 1.28L540.45 1.28L540.45 1.28Q537.47 1.28 535.01 0.51L535.01 0.51L535.01 0.51Q532.54-0.26 531.01-1.92L531.01-1.92L531.01-1.92Q528.19-5.18 528.19-12.61L528.19-12.61L528.19-12.61Q528.19-22.21 533.82-28.03L533.82-28.03L533.82-28.03Q539.46-33.92 548.42-33.92ZM547.97-30.08L547.97-30.08L547.97-30.08Q545.60-30.08 544.32-27.52L544.32-27.52L544.32-27.52Q543.04-24.96 541.73-18.62L541.73-18.62L541.73-18.62Q540.42-12.29 540.42-6.59L540.42-6.59L540.42-6.59Q540.42-2.69 542.72-2.69L542.72-2.69L542.72-2.69Q544.77-2.69 546.21-4.74L546.21-4.74L546.21-4.74Q547.65-6.78 548.22-10.18L548.22-10.18L551.68-28.93L551.68-28.93Q550.34-30.08 547.97-30.08ZM616-10.69L616-10.69Q611.78-4.86 607.71-1.79L607.71-1.79L607.71-1.79Q603.65 1.28 599.46 1.28L599.46 1.28L599.46 1.28Q595.26 1.28 593.79 0.45L593.79 0.45L593.79-13.63L593.79-13.63Q590.14-3.90 583.62-0.13L583.62-0.13L583.62-0.13Q581.25 1.28 579.01 1.28L579.01 1.28L579.01 1.28Q574.72 1.28 572.86 0.45L572.86 0.45L572.86 0.45Q572.42-14.21 572.03-18.27L572.03-18.27L572.03-18.27Q571.65-22.34 571.33-24.83L571.33-24.83L571.33-24.83Q570.69-29.82 568.51-31.87L568.51-31.87L568.51-31.87Q571.26-33.92 575.10-33.92L575.10-33.92L575.10-33.92Q582.53-33.92 583.55-24.70L583.55-24.70L583.55-24.70Q583.81-22.53 583.81-20.22L583.81-20.22L583.81-20.22Q583.81-16.77 583.04-4.74L583.04-4.74L583.04-4.74Q584.58-5.44 586.21-7.97L586.21-7.97L586.21-7.97Q587.84-10.50 589.18-13.95L589.18-13.95L589.18-13.95Q592.19-21.95 592.19-28.86L592.19-28.86L592.19-28.86Q592.19-29.95 591.90-31.10L591.90-31.10L591.90-31.10Q591.62-32.26 591.30-32.58L591.30-32.58L591.30-32.58Q593.54-33.92 596.96-33.92L596.96-33.92L596.96-33.92Q600.38-33.92 602.02-31.58L602.02-31.58L602.02-31.58Q603.65-29.25 604.10-24.96L604.10-24.96L604.10-24.96Q604.61-19.52 604.61-16.26L604.61-16.26L604.61-16.26Q604.61-11.71 604.16-4.99L604.16-4.99L604.16-4.99Q607.36-7.30 609.98-14.85L609.98-14.85L609.98-14.85Q612.61-22.40 612.61-27.78L612.61-27.78L612.61-27.78Q612.61-30.14 612.22-31.55L612.22-31.55L612.22-31.55Q614.34-33.92 617.98-33.92L617.98-33.92L617.98-33.92Q620.22-33.92 621.86-32.70L621.86-32.70L621.86-32.70Q623.49-31.49 623.49-29.22L623.49-29.22L623.49-29.22Q623.49-26.94 622.82-24.51L622.82-24.51L622.82-24.51Q622.14-22.08 621.06-19.58L621.06-19.58L621.06-19.58Q618.94-14.59 616-10.69L616-10.69ZM640.58-3.52L640.58-3.52L640.58-3.52Q638.59 1.28 632.26 1.28L632.26 1.28L632.26 1.28Q628.99 1.28 626.94-0.96L626.94-0.96L626.94-0.96Q625.22-2.94 625.22-4.93L625.22-4.93L625.22-4.93Q625.22-10.11 627.58-20.22L627.58-20.22L629.95-32.64L642.94-33.92L639.04-13.70L639.04-13.70Q637.95-8.96 637.95-7.30L637.95-7.30L637.95-7.30Q637.95-3.65 640.58-3.52ZM631.10-41.54L631.10-41.54L631.10-41.54Q631.10-44.03 633.18-45.38L633.18-45.38L633.18-45.38Q635.26-46.72 638.27-46.72L638.27-46.72L638.27-46.72Q641.28-46.72 643.10-45.38L643.10-45.38L643.10-45.38Q644.93-44.03 644.93-41.54L644.93-41.54L644.93-41.54Q644.93-39.04 642.91-37.76L642.91-37.76L642.91-37.76Q640.90-36.48 637.89-36.48L637.89-36.48L637.89-36.48Q634.88-36.48 632.99-37.76L632.99-37.76L632.99-37.76Q631.10-39.04 631.10-41.54ZM666.18-33.92L666.18-33.92L666.18-33.92Q668.48-33.92 670.27-33.41L670.27-33.41L670.27-33.41Q670.34-33.66 670.46-34.37L670.46-34.37L670.78-36.35L670.78-36.35Q671.04-37.63 671.42-39.74L671.42-39.74L672.45-44.80L685.18-46.08L678.08-8.96L678.08-8.96Q678.02-8.58 678.02-7.94L678.02-7.94L678.02-6.91L678.02-6.91Q678.02-5.50 678.72-4.45L678.72-4.45L678.72-4.45Q679.42-3.39 680.58-3.39L680.58-3.39L680.58-3.39Q679.30-0.38 675.39 0.90L675.39 0.90L675.39 0.90Q674.05 1.28 672.16 1.28L672.16 1.28L672.16 1.28Q670.27 1.28 668.54 0.29L668.54 0.29L668.54 0.29Q666.82-0.70 666.30-2.37L666.30-2.37L666.30-2.37Q665.28-0.70 663.23 0.29L663.23 0.29L663.23 0.29Q661.18 1.28 658.21 1.28L658.21 1.28L658.21 1.28Q655.23 1.28 652.77 0.51L652.77 0.51L652.77 0.51Q650.30-0.26 648.77-1.92L648.77-1.92L648.77-1.92Q645.95-5.18 645.95-12.61L645.95-12.61L645.95-12.61Q645.95-22.21 651.58-28.03L651.58-28.03L651.58-28.03Q657.22-33.92 666.18-33.92ZM665.73-30.08L665.73-30.08L665.73-30.08Q663.36-30.08 662.08-27.52L662.08-27.52L662.08-27.52Q660.80-24.96 659.49-18.62L659.49-18.62L659.49-18.62Q658.18-12.29 658.18-6.59L658.18-6.59L658.18-6.59Q658.18-2.69 660.48-2.69L660.48-2.69L660.48-2.69Q662.53-2.69 663.97-4.74L663.97-4.74L663.97-4.74Q665.41-6.78 665.98-10.18L665.98-10.18L669.44-28.93L669.44-28.93Q668.10-30.08 665.73-30.08ZM711.94-10.82L711.94-10.82L711.94-10.82Q713.54-9.73 713.54-7.33L713.54-7.33L713.54-7.33Q713.54-4.93 712.32-3.39L712.32-3.39L712.32-3.39Q711.10-1.86 709.12-0.83L709.12-0.83L709.12-0.83Q705.02 1.28 700.61 1.28L700.61 1.28L700.61 1.28Q696.19 1.28 693.60 0.32L693.60 0.32L693.60 0.32Q691.01-0.64 689.28-2.43L689.28-2.43L689.28-2.43Q685.89-5.82 685.89-12.03L685.89-12.03L685.89-12.03Q685.89-21.70 691.14-27.58L691.14-27.58L691.14-27.58Q696.77-33.92 706.56-33.92L706.56-33.92L706.56-33.92Q712.64-33.92 715.65-31.36L715.65-31.36L715.65-31.36Q717.89-29.44 717.89-26.30L717.89-26.30L717.89-26.30Q717.89-15.04 698.43-15.04L698.43-15.04L698.43-15.04Q698.18-13.38 698.18-11.97L698.18-11.97L698.18-11.97Q698.18-9.02 699.49-7.90L699.49-7.90L699.49-7.90Q700.80-6.78 703.23-6.78L703.23-6.78L703.23-6.78Q705.66-6.78 708.26-7.90L708.26-7.90L708.26-7.90Q710.85-9.02 711.94-10.82ZM698.88-17.79L698.88-17.79L698.88-17.79Q703.42-17.79 706.05-20.61L706.05-20.61L706.05-20.61Q708.67-23.30 708.67-27.58L708.67-27.58L708.67-27.58Q708.67-29.06 708.13-29.86L708.13-29.86L708.13-29.86Q707.58-30.66 706.50-30.66L706.50-30.66L706.50-30.66Q705.41-30.66 704.48-30.24L704.48-30.24L704.48-30.24Q703.55-29.82 702.59-28.42L702.59-28.42L702.59-28.42Q700.22-25.22 698.88-17.79Z" fill="#000"></path></g></g><style>text {
  font-size: 64px;
  font-family: Arial Black;
  dominant-baseline: central;
  text-anchor: middle;
}</style></svg>